<svg width="1100" height="303" viewBox="0 0 1100 303" fill="none" xmlns="http://www.w3.org/2000/svg">
<path d="M133.481 113.688C103.004 26.8415 66.4117 8.92072 46.935 3.36806C-26.7115 -17.6419 -20.6588 111.986 115.267 139.873C182.799 330.699 309.499 241.997 377.859 102.296C416.864 22.591 385.761 -20.8663 327.601 9.96927C278.002 36.2725 211.946 115.932 133.481 113.688ZM51.404 76.7252C20.1883 38.4992 65.5269 -7.66959 109.062 112.482C96.2355 109.015 73.1125 103.31 51.404 76.7252ZM141.94 140.747C235.036 137.145 308.519 36.8926 339.943 43.7531C388.212 54.2891 213.085 354.539 141.94 140.747Z" fill="#0E1620"/>
<g>
  <path d="M1024.33 302.328C1013.76 302.328 1003.66 300.619 994.026 297.2C984.391 293.886 976.055 288.863 969.011 282.128C962.069 275.395 957.149 267.107 954.249 257.266L984.966 248.683C988.27 257.93 1001.76 272.494 1024.33 272.494C1033.23 272.494 1040.64 270.733 1046.55 267.212C1060.05 259.158 1064.26 244.633 1064.26 230.852V206.302H1063.64C1058.67 215.003 1051.83 221.787 1043.13 226.657C1027.82 235.222 1000.26 237.654 980.197 226.346C964.941 217.751 951.916 200.3 951.916 166.679V71.2735H987.657V162.328C987.657 191.031 1003.39 202.417 1023.39 202.417C1041.62 202.417 1053.28 193.112 1059.29 181.284C1062.6 174.758 1064.26 167.403 1064.26 159.22V71.272H1100V230.54C1100 244.939 1096.94 257.525 1090.83 268.299C1084.72 279.176 1075.92 287.567 1064.41 293.471C1052.92 299.376 1039.55 302.328 1024.33 302.328Z" fill="#0E1620"/>
  <path d="M673.905 242.039C658.264 242.039 644.073 238.413 631.331 231.162C618.588 223.809 608.541 213.501 601.189 200.241C593.934 186.981 590.309 171.909 590.309 155.024C590.309 137.932 593.882 122.809 601.03 109.651C608.285 96.3915 618.281 86.0854 631.022 78.7302C643.867 71.2721 658.212 67.543 674.06 67.543C690.015 67.543 704.309 71.2206 716.948 78.5743C729.69 85.9295 739.635 96.2371 746.781 109.496C753.929 122.651 757.502 137.828 757.502 155.023C757.502 172.012 753.877 187.136 746.626 200.396C739.376 213.551 729.38 223.807 716.639 231.161C703.897 238.413 689.65 242.039 673.905 242.039ZM673.905 212.049C682.816 212.049 690.843 209.771 697.989 205.213C705.24 200.552 710.942 193.922 715.081 185.325C719.328 176.624 721.452 166.523 721.452 155.024C721.452 143.319 719.38 133.168 715.24 124.569C711.096 115.868 705.399 109.187 698.144 104.525C690.996 99.8632 682.919 97.5331 673.905 97.5331C664.892 97.5331 656.813 99.8632 649.667 104.525C642.519 109.187 636.822 115.868 632.575 124.569C628.431 133.168 626.358 143.319 626.358 155.024C626.358 166.522 628.431 176.571 632.575 185.169C636.822 193.767 642.519 200.397 649.667 205.057C656.918 209.719 665 212.049 673.905 212.049Z" fill="#0E1620"/>
  <path d="M541.817 14.2456V172.737C541.817 185.064 538.45 194.439 531.718 200.862C525.085 207.182 515.557 210.34 503.124 210.34C490.279 210.34 480.491 207.18 473.758 200.862C467.474 194.963 464.016 187.26 462.617 178.732L429.86 187.886C431.186 196.144 433.646 203.579 437.242 210.185C443.044 220.544 451.435 228.469 462.415 233.959C473.394 239.346 486.706 242.039 502.347 242.039C517.989 242.039 531.352 239.346 542.438 233.959C553.519 228.469 561.961 220.544 567.762 210.185C573.566 199.826 576.466 187.343 576.466 172.737V14.2456H541.817Z" fill="#0E1620"/>
  <path d="M897.653 78.5353C868.75 61.2608 831.466 64.0681 807.257 88.2299H806.943V7.31152H771.206V148.358C771.206 168.735 773.793 185.595 781.893 200.201C789.245 213.461 799.293 223.767 812.034 231.122C834.873 244.305 869.463 246.988 897.341 231.122C926.552 214.498 938.204 184.352 938.204 154.985C938.204 125.148 926.053 95.5119 897.65 78.5368L897.653 78.5353ZM878.696 205.174C871.548 209.732 863.522 212.01 854.612 212.01C845.702 212.01 836.021 209.679 828.771 205.018C816.373 197.049 805.463 180.905 805.463 154.985C805.463 143.279 807.535 133.127 811.679 124.53C820.929 105.338 838.278 97.4942 854.611 97.4942C871.636 97.4942 887.247 106.462 895.945 124.53C900.085 133.129 902.157 143.28 902.157 154.985C902.157 180.008 891.554 196.977 878.696 205.174Z" fill="#0E1620"/>
</g>
</svg>
